<svg xmlns="http://www.w3.org/2000/svg" width="900" height="600" viewBox="0 0 900 600">
  <rect width="900" height="600" fill="#0b0b12"/>
  <rect x="10" y="10" width="880" height="580" rx="24" fill="none" stroke="#c060ff" stroke-width="3" opacity="0.4"/>
  <!-- crescent moon -->
  <circle cx="640" cy="170" r="70" fill="#f0ffff" opacity="0.95"/>
  <circle cx="668" cy="148" r="62" fill="#0b0b12"/>
  <!-- stars -->
  <g fill="#80ff80">
    <path d="M250 120 l6 18 18 6 -18 6 -6 18 -6 -18 -18 -6 18 -6 Z"/>
    <path d="M430 90 l4 12 12 4 -12 4 -4 12 -4 -12 -12 -4 12 -4 Z" fill="#8080ff"/>
    <path d="M360 220 l4 12 12 4 -12 4 -4 12 -4 -12 -12 -4 12 -4 Z" fill="#ff8080"/>
    <circle cx="520" cy="140" r="4" fill="#f0ffff" opacity="0.7"/>
    <circle cx="300" cy="300 " r="4" fill="#f0ffff" opacity="0.5"/>
    <circle cx="760" cy="300" r="4" fill="#f0ffff" opacity="0.6"/>
    <circle cx="200" cy="210" r="3" fill="#f0ffff" opacity="0.5"/>
  </g>
  <!-- telescope -->
  <g>
    <rect x="380" y="300" width="200" height="44" rx="14" fill="#8080ff" transform="rotate(-30 480 322)"/>
    <rect x="560" y="230" width="44" height="30" rx="10" fill="#c060ff" transform="rotate(-30 582 245)"/>
    <line x1="470" y1="360" x2="400" y2="500" stroke="#f0ffff" stroke-width="8" stroke-linecap="round"/>
    <line x1="470" y1="360" x2="540" y2="500" stroke="#f0ffff" stroke-width="8" stroke-linecap="round"/>
    <line x1="470" y1="360" x2="470" y2="500" stroke="#f0ffff" stroke-width="8" stroke-linecap="round" opacity="0.6"/>
  </g>
  <!-- ground -->
  <path d="M120 520 Q450 480 780 520" stroke="#80ff80" stroke-width="5" fill="none" opacity="0.6"/>
</svg>
